Coordinates
version=1
nRows=12
nColumns=24
inDegrees=yes

Units are S.I. units (second, meters, Newtons, ...)
Angles are in degrees.

endheader
time	pelvis_tilt	pelvis_list	pelvis_rotation	pelvis_tx	pelvis_ty	pelvis_tz	hip_flexion_r	hip_adduction_r	hip_rotation_r	knee_angle_r	ankle_angle_r	subtalar_angle_r	mtp_angle_r	hip_flexion_l	hip_adduction_l	hip_rotation_l	knee_angle_l	ankle_angle_l	subtalar_angle_l	mtp_angle_l	lumbar_extension	lumbar_bending	lumbar_rotation
      0.82066667	      1.51411181	     -4.71132905	     -2.40916238	     -0.42086431	      1.01738734	      0.29638776	      9.78506199	      7.82688096	     -3.55944477	    -13.07349026	     -5.28847476	    -14.85079160	     -3.01712540	     16.07668781	    -10.70855722	     -8.36247042	    -70.88639612	      2.29281024	    -14.47331413	     -5.17983729	    -12.84541966	      5.67176929	      6.82445633
      0.82483333	      1.57186855	     -4.62470170	     -2.66035782	     -0.41564508	      1.01842281	      0.29698625	      9.24759483	      7.77769475	     -3.33240107	    -12.81525004	     -5.10853416	    -14.70469570	     -3.03388558	     16.53158276	    -10.65510701	     -8.53857932	    -70.46920406	      2.50323034	    -14.31307150	     -5.38315282	    -12.94657847	      5.51996884	      7.20179494
      0.82900000	      1.60408834	     -4.54538582	     -2.85058569	     -0.41041163	      1.01937820	      0.29743916	      8.73378686	      7.71721357	     -3.19539915	    -12.53705083	     -5.00733164	    -14.56106012	     -3.04111597	     17.02154455	    -10.58736320	     -8.65313388	    -70.00632644	      2.74246674	    -14.12069066	     -5.51455968	    -13.01288840	      5.37776457	      7.36853365
      0.83316667	      1.70035248	     -4.45532759	     -3.10096056	     -0.40517507	      1.02044343	      0.29798778	      8.14506744	      7.64832164	     -2.98716235	    -12.24595513	     -4.93682012	    -14.41146758	     -3.04853702	     17.38754523	    -10.52831224	     -8.85664769	    -69.44555333	      2.94817797	    -13.98611398	     -5.74537594	    -13.15912837	      5.20980914	      7.66699679
      0.83733333	      1.68921487	     -4.38648146	     -3.24607502	     -0.39993673	      1.02125539	      0.29827367	      7.68004158	      7.57917011	     -2.91880526	    -11.96166098	     -4.87621137	    -14.27228407	     -3.04649650	     17.90790098	    -10.44939454	     -8.92457335	    -68.87066592	      3.14811410	    -13.77955184	     -5.78594245	    -13.16541667	      5.11761689	      7.74112001
      0.84150000	      1.86451472	     -4.28186053	     -3.53850645	     -0.39468555	      1.02240538	      0.29891441	      7.00449301	      7.48955159	     -2.67014364	    -11.67414409	     -4.74017394	    -14.09033166	     -3.03317778	     18.11611179	    -10.39920201	     -9.21612166	    -68.15072720	      3.31249962	    -13.58513904	     -5.96246965	    -13.39770545	      4.90740771	      8.10102442
      0.84566667	      1.85531949	     -4.21036786	     -3.69452724	     -0.38943023	      1.02315600	      0.29919747	      6.53964923	      7.41163001	     -2.59689409	    -11.39434615	     -4.67465868	    -13.95317721	     -3.02625557	     18.58561245	    -10.32532536	     -9.31704807	    -67.44767652	      3.50248218	    -13.34585052	     -6.00048659	    -13.40343324	      4.81106330	      8.18279771
      0.84983333	      2.03113056	     -4.10138465	     -3.99232831	     -0.38418204	      1.02421724	      0.29982744	      5.87608900	      7.30600992	     -2.35471688	    -11.13532465	     -4.46426627	    -13.75225886	     -3.00193129	     18.74954799	    -10.27627348	     -9.63567417	    -66.61149156	      3.68615665	    -13.10154952	     -6.09891714	    -13.63127009	      4.58902093	      8.49476030
      0.85400000	      2.15736221	     -3.99771669	     -4.25107136	     -0.37888312	      1.02518082	      0.30035737	      5.25544961	      7.19834898	     -2.15267022	    -10.84151967	     -4.40285255	    -13.65366762	     -2.97695336	     18.95850656	    -10.21533733	     -9.91109067	    -65.71752202	      3.82043708	    -12.88225377	     -6.18816450	    -13.78462663	      4.40236182	      8.74891888
      0.85816667	      2.32546531	     -3.91713519	     -4.53382073	     -0.37362618	      1.02616531	      0.30094526	      4.58662166	      7.11226547	     -1.89906742	    -10.53904479	     -4.33492556	    -13.52071131	     -2.93800743	     19.09564701	    -10.19451548	    -10.22952955	    -64.76646359	      3.88473185	    -12.70147891	     -6.29469971	    -14.00304281	      4.22681731	      9.03960078
      0.86233333	      2.47134847	     -3.83111930	     -4.80450697	     -0.36835242	      1.02706065	      0.30148438	      3.95044343	      7.01219523	     -1.67339060	    -10.25348777	     -4.24669398	    -13.40244804	     -2.89366965	     19.23889174	    -10.16184752	    -10.54167310	    -63.76642717	      3.99534231	    -12.48854795	     -6.39009821	    -14.18447698	      4.04867509	      9.29087998
      0.86650000	      2.45505228	     -3.76583361	     -4.97297792	     -0.36305738	      1.02760600	      0.30174676	      3.50390777	      6.92540383	     -1.58662539	     -9.98993921	     -4.19528362	    -13.29026527	     -2.87764190	     19.59694323	    -10.10847538	    -10.71078509	    -62.76946942	      4.11235336	    -12.25789464	     -6.41536087	    -14.16840176	      3.95433108	      9.38087769
